#N canvas 0 0 749 738 12;
#X obj 283 213 inlet~;
#X obj 351 216 inlet~;
#X obj 286 408 outlet~;
#X obj 287 358 *~;
#X obj 283 262 /~;
#X obj 286 304 wrap~;
#X connect 0 0 4 0;
#X connect 1 0 4 1;
#X connect 1 0 3 1;
#X connect 3 0 2 0;
#X connect 4 0 5 0;
#X connect 5 0 3 0;
