#N canvas 0 0 1364 738 12;
#X obj 158 338 samphold~;
#X obj 243 337 samphold~;
#X obj 332 337 samphold~;
#X obj 417 336 samphold~;
#X obj 928 221 s~ first;
#X obj 48 456 !=~;
#X obj 50 531 s~ xor;
#X obj 745 591 dac~;
#X obj 922 182 phasor~ 500;
#X obj 922 -7 vsl 20 170 0 100 0 0 empty empty empty 0 -9 0 12 #fcfcfc #000000 #000000 0 1;
#X obj 281 467 *~ 2;
#X obj 339 466 *~ 4;
#X obj 400 466 *~ 8;
#X obj 292 545 +~;
#X obj 739 505 mtof~;
#X obj 748 535 osc~;
#X obj 747 563 *~ 0.1;
#X obj 498 333 samphold~;
#X obj 583 332 samphold~;
#X obj 672 332 samphold~;
#X obj 757 331 samphold~;
#X obj 760 365 gateled;
#X obj 673 368 gateled;
#X obj 586 366 gateled;
#X obj 499 366 gateled;
#X obj 417 372 gateled;
#X obj 331 368 gateled;
#X obj 243 369 gateled;
#X obj 159 378 gateled;
#X obj 623 91 r~ first;
#X obj 627 116 s~ a;
#X obj 713 258 r~ a;
#X obj 713 294 s~ b;
#X obj 643 257 r~ b;
#X obj 557 254 r~ c;
#X obj 474 249 r~ d;
#X obj 382 249 r~ e;
#X obj 302 247 r~ f;
#X obj 216 251 r~ g;
#X obj 656 296 s~ c, f 5;
#X obj 571 289 s~ d, f 5;
#X obj 482 289 s~ e, f 5;
#X obj 398 293 s~ f, f 5;
#X obj 315 291 s~ g, f 5;
#X obj 53 319 samphold~;
#X obj 234 288 s~ h;
#X obj 98 215 r~ xor;
#X obj 455 466 *~ 16;
#X obj 513 465 *~ 32;
#X obj 574 465 *~ 64;
#X obj 641 458 *~ 128;
#X obj 709 422 *~ 0.25;
#X obj 713 467 +~ 36;
#X obj 765 461 -~;
#X obj 791 445 wrap~;
#X obj 81 494 *~;
#X obj 111 422 tgl 20 0 empty empty empty 0 -10 0 12 #fcfcfc #000000 #000000 0 1;
#X obj 148 211 r~ current;
#X obj 994 561 samphold~;
#X obj 997 595 gateled;
#X obj 1059 630 s~ current;
#X obj 355 157 sig~ 0;
#X obj 1057 592 *~;
#X obj 1090 566 tgl 20 0 empty empty empty 0 -10 0 12 #fcfcfc #000000 #000000 0 1;
#X obj 1158 582 tgl 20 0 empty empty empty 0 -10 0 12 #fcfcfc #000000 #000000 0 1;
#X obj 1172 655 sig~;
#X obj 128 280 clip~ 0 1;
#X obj 122 467 == 0;
#X connect 0 0 1 0;
#X connect 0 0 5 1;
#X connect 0 0 13 0;
#X connect 0 0 28 0;
#X connect 1 0 2 0;
#X connect 1 0 10 0;
#X connect 1 0 27 0;
#X connect 2 0 3 0;
#X connect 2 0 11 0;
#X connect 2 0 26 0;
#X connect 3 0 12 0;
#X connect 3 0 17 0;
#X connect 3 0 25 0;
#X connect 5 0 55 0;
#X connect 8 0 4 0;
#X connect 8 0 20 1;
#X connect 8 0 58 1;
#X connect 9 0 8 0;
#X connect 10 0 13 1;
#X connect 11 0 13 1;
#X connect 12 0 13 1;
#X connect 13 0 51 0;
#X connect 14 0 15 0;
#X connect 15 0 16 0;
#X connect 16 0 7 0;
#X connect 17 0 18 0;
#X connect 17 0 24 0;
#X connect 17 0 47 0;
#X connect 18 0 19 0;
#X connect 18 0 23 0;
#X connect 18 0 48 0;
#X connect 19 0 20 0;
#X connect 19 0 22 0;
#X connect 19 0 49 0;
#X connect 20 0 21 0;
#X connect 20 0 44 0;
#X connect 20 0 50 0;
#X connect 29 0 30 0;
#X connect 31 0 19 1;
#X connect 31 0 32 0;
#X connect 33 0 18 1;
#X connect 33 0 39 0;
#X connect 34 0 17 1;
#X connect 34 0 40 0;
#X connect 35 0 3 1;
#X connect 35 0 41 0;
#X connect 36 0 2 1;
#X connect 36 0 42 0;
#X connect 37 0 1 1;
#X connect 37 0 43 0;
#X connect 37 0 44 1;
#X connect 38 0 0 1;
#X connect 38 0 45 0;
#X connect 44 0 5 0;
#X connect 46 0 66 0;
#X connect 47 0 13 1;
#X connect 48 0 13 1;
#X connect 49 0 13 1;
#X connect 50 0 13 1;
#X connect 51 0 52 0;
#X connect 52 0 54 0;
#X connect 52 0 53 0;
#X connect 53 0 14 0;
#X connect 54 0 53 1;
#X connect 55 0 6 0;
#X connect 56 0 55 1;
#X connect 56 0 67 0;
#X connect 57 0 66 0;
#X connect 58 0 59 0;
#X connect 58 0 62 0;
#X connect 62 0 60 0;
#X connect 63 0 62 1;
#X connect 64 0 65 0;
#X connect 65 0 60 0;
#X connect 66 0 0 0;
#X connect 67 0 63 0;
