#N canvas 0 0 749 738 12;
#X obj 232 490 s~ a;
#X obj 230 314 samphold~;
#X obj 231 399 %~;
#X obj 231 263 r~ a;
#X obj 231 447 *~ 1;
#X obj 107 619 dac~;
#X obj 113 437 /~;
#X obj 104 216 samphold~;
#X obj 105 301 %~;
#X obj 105 349 *~ 1;
#X obj 106 391 s~ b;
#X obj 104 165 r~ b;
#X obj 282 352 +~;
#X obj 296 258 wrap~;
#X obj 109 521 clip~ 0 1;
#X obj 174 418 *~ 1;
#X obj 293 225 *~ 255;
#X obj 227 187 phasor~ 200;
#X obj 257 60 r~ a;
#X obj 111 488 wrap~;
#X obj 163 259 sig~ 59;
#X obj 223 352 -~ 5;
#X obj 103 259 +~ 2;
#X obj 435 379 int;
#X obj 247 110 *~;
#X obj 534 111 vsl 20 170 0 1 0 0 empty empty empty 0 -9 0 12 #fcfcfc #000000 #000000 0 1;
#X obj 185 130 sig~ 2;
#X obj 249 135 *~ 200;
#X obj 582 193 vsl 20 170 1 5 0 0 empty empty empty 0 -9 0 12 #fcfcfc #000000 #000000 0 1;
#X obj 574 380 int;
#X obj 107 551 *~ -1;
#X obj 346 101 * 384;
#X obj 348 74 r Channel-A;
#X obj 447 76 r Channel-B;
#X obj 439 108 * 4;
#X obj 442 141 + 1;
#X obj 537 74 r Channel-C;
#X obj 626 75 r Channel-D;
#X obj 621 105 * 4;
#X obj 624 138 + 1;
#X connect 1 0 6 0;
#X connect 1 0 21 0;
#X connect 2 0 4 0;
#X connect 3 0 1 0;
#X connect 4 0 0 0;
#X connect 6 0 19 0;
#X connect 7 0 15 0;
#X connect 7 0 22 0;
#X connect 8 0 9 0;
#X connect 9 0 10 0;
#X connect 11 0 7 0;
#X connect 12 0 2 1;
#X connect 12 0 6 1;
#X connect 13 0 1 1;
#X connect 14 0 30 0;
#X connect 15 0 12 0;
#X connect 16 0 13 0;
#X connect 17 0 7 1;
#X connect 17 0 16 0;
#X connect 18 0 24 0;
#X connect 19 0 14 0;
#X connect 20 0 8 1;
#X connect 21 0 2 0;
#X connect 22 0 8 0;
#X connect 23 0 21 1;
#X connect 24 0 27 0;
#X connect 25 0 24 1;
#X connect 26 0 17 0;
#X connect 27 0 17 0;
#X connect 28 0 29 0;
#X connect 29 0 22 1;
#X connect 30 0 5 0;
#X connect 31 0 16 1;
#X connect 32 0 31 0;
#X connect 33 0 34 0;
#X connect 34 0 35 0;
#X connect 35 0 23 0;
#X connect 36 0 25 0;
#X connect 37 0 38 0;
#X connect 38 0 39 0;
#X connect 39 0 28 0;
